<svg xmlns="http://www.w3.org/2000/svg" height="24" viewBox="0 -960 960 960" width="24"><path d="M225.015-210q-40.765 0-69.39-29.042Q127-268.083 127-308.5H81v-377.651q0-24.287 16.266-40.818Q113.53-743.5 138.5-743.5H654v138h81.5l144 194v103H821q0 40.417-29.11 69.458Q762.779-210 722.015-210q-40.765 0-69.39-29.042Q624-268.083 624-308.5H324q0 41-29.11 69.75Q265.779-210 225.015-210Zm.235-25.5q30.25 0 51.75-21.25t21.5-51.75q0-30.5-21.462-51.75-21.463-21.25-51.538-21.25-30.5 0-51.75 21.25T152.5-308.5q0 30.5 21.25 51.75t51.5 21.25ZM106.5-334H130q5.5-29 33-50.75t62.5-21.75q33 0 61.25 21T321-334h307.5v-384h-490q-12.5 0-22.25 10t-9.75 22v352Zm615.75 98.5q30.25 0 51.75-21.25t21.5-51.75q0-30.5-21.463-51.75-21.462-21.25-51.537-21.25-30.5 0-51.75 21.25T649.5-308.5q0 30.5 21.25 51.75t51.5 21.25ZM654-413h193.5l-127-167H654v167ZM367.5-526Z"/></svg>