<svg xmlns="http://www.w3.org/2000/svg" height="24" viewBox="0 -960 960 960" width="24"><path d="M274-137q-23.969 0-40.734-16.766Q216.5-170.531 216.5-194.5v-333q0-23.969 16.766-40.734Q250.031-585 274-585h61.5v-78.773q0-60.727 42-102.727 42-42 102.5-42t102.5 42q42 42 42 102.727V-585H686q23.969 0 40.734 16.766Q743.5-551.469 743.5-527.5v333q0 23.969-16.766 40.734Q709.969-137 686-137H274Zm0-25.5h412q14 0 23-9t9-23v-333q0-14-9-23t-23-9H274q-14 0-23 9t-9 23v333q0 14 9 23t23 9Zm205.916-146q22.347 0 37.465-15.035 15.119-15.034 15.119-37.381t-15.035-37.465Q502.431-413.5 480.084-413.5t-37.465 15.035Q427.5-383.431 427.5-361.084t15.035 37.465q15.034 15.119 37.381 15.119ZM361-585h238v-79.077q0-49.423-34.691-84.173T480.059-783q-49.559 0-84.309 34.767Q361-713.467 361-663.8v78.8ZM242-162.5v-397 397Z"/></svg>